<svg class="logo" version="1.1" id="Layer_1" xmlns="http://www.w3.org/2000/svg" x="0px" y="0px" viewBox="0 0 728 300"><path class="path" d="M80.9,73.8v45.6h77.7v60H80.9v107H10.1V13.9h156.5v60H80.9zM428.9,13.9h70.9v272.6h-70.9V13.9z M718,105.3 c-14.5-19.5-38-30-62.2-30c-43.4,0-72.7,33.3-72.7,75.6s29.6,74.1,73.8,74.1c23.1,0,46.3-11.2,61.1-28.9V281c-23.5,7.2-40.5,12.6-62.5,12.6c-38,0-74.1-14.5-102.3-40.1c-30-27.1-43.7-62.5-43.7-103c0-37.2,14.1-73,40.1-99.8C576.3,23.3,615,6.6,653.3,6.6c22.8,0,43.7,5.1,64.7,13.7L718,105.3L718,105.3z M280.4,13.9H179.9v272.6h100.5 c75.5,0,138.5-59.6,138.5-136.3S356.3,13.9,280.4,13.9zM266.6,226.4h-15.9V73.8h16.6c45.5,0,77.7,27.5,77.7,76.3 C345.1,203.3,308.9,226.4,266.6,226.4z"></path></svg>