<svg width="127" height="44" viewBox="0 0 127 44" fill="none" xmlns="http://www.w3.org/2000/svg">
<path d="M13.6366 17.1579C13.6366 19.4337 12.5955 20.6926 9.85367 20.6926H7.5113V13.7382C7.80788 13.7079 8.80051 13.6897 9.09709 13.6897H9.89603C12.6923 13.6897 13.6366 14.876 13.6366 17.1579ZM19.205 26.2368C19.205 22.6476 16.2755 21.3463 12.7226 21.2676V21.1345C15.7489 20.8863 18.2245 19.6213 18.2245 16.5708C18.2245 13.1753 15.416 12.5397 12.2747 12.5397C8.49788 12.5397 4.06735 12.6426 0.302612 12.5397V13.7079C1.09551 13.6534 3.03235 13.7624 3.03235 14.761V29.2147C3.03235 30.1832 1.04709 30.3163 0.302612 30.3163V31.4542C3.93419 31.3574 8.26182 31.4542 11.9237 31.4542C15.7731 31.4542 19.205 30.1529 19.205 26.2368ZM14.3629 25.8676C14.3629 28.8395 13.3279 30.2497 9.73261 30.2497H7.49314V21.9213H9.87788C13.1645 21.9213 14.381 23.0289 14.381 25.8434L14.3629 25.8676Z" fill="white"/>
<path d="M43.5668 31.424C41.872 31.424 40.1834 31.424 38.4947 31.4542V30.2921C39.2634 30.2921 41.3939 30.2497 41.3939 29.2147V15.79H41.3334L33.6949 31.6842H32.7749L25.3241 15.7597H25.2697V29.2147C25.2697 30.274 27.382 30.2921 28.181 30.2921L28.2173 31.4542C26.1049 31.3876 23.2239 31.3392 21.1478 31.4542V30.2921C21.9528 30.2921 23.7686 30.2255 23.7686 29.2147V14.7368C23.7686 13.7503 21.8923 13.6655 21.1478 13.6655V12.4974C23.5689 12.6003 26.1352 12.6003 28.5381 12.4974L34.9055 25.9282L41.4241 12.5458C43.7362 12.6487 46.351 12.6184 48.6873 12.5155V13.6837C47.9186 13.6837 45.9031 13.7382 45.9031 14.755V29.2147C45.9031 30.2497 47.8944 30.2921 48.6873 30.2921V31.4542C46.9744 31.4058 45.2555 31.424 43.5668 31.424Z" fill="white"/>
<path d="M66.47 21.9637C66.47 25.5952 66.1129 30.6129 60.7503 30.6129C55.3877 30.6129 55.0003 25.571 55.0003 21.9637C55.0003 18.3563 55.3877 13.3508 60.7503 13.3508C66.1129 13.3508 66.47 18.3684 66.47 21.9637ZM71.4816 21.9637C71.4816 15.6992 67.6564 12.1826 60.7503 12.1826C53.8442 12.1826 49.9827 15.6689 49.9827 21.9637C49.9827 28.2584 53.814 31.7689 60.7503 31.7689C67.6866 31.7689 71.4816 28.2645 71.4816 21.9637Z" fill="white"/>
<path d="M103.554 0.21051C91.5205 0.21051 81.765 9.96599 81.765 22C81.765 34.034 91.5205 43.7895 103.554 43.7895C115.588 43.7895 125.344 34.034 125.344 22C125.344 9.96599 115.588 0.21051 103.554 0.21051Z" fill="#ED1C24"/>
<path d="M102.889 15.3421L99.1058 10.4092C98.9464 10.199 98.6977 10.0758 98.4339 10.0763C98.1778 10.0748 97.9358 10.1936 97.7802 10.3971L93.2771 16.0684V24.9657L97.7681 19.2218C97.9331 19.012 98.1851 18.8893 98.4521 18.8889C98.7224 18.8879 98.9776 19.0133 99.1421 19.2278L102.943 24.1971C103.089 24.3858 103.31 24.501 103.548 24.5118C103.787 24.5035 104.01 24.3878 104.154 24.1971L107.955 19.2278C108.121 19.0155 108.375 18.8907 108.645 18.8889C108.912 18.8865 109.165 19.0097 109.329 19.2218L113.808 24.9597V16.0623L109.304 10.391C109.146 10.1873 108.903 10.0688 108.645 10.0702C108.382 10.0725 108.134 10.1952 107.973 10.4031L104.22 15.3421C104.062 15.5497 103.815 15.6708 103.554 15.6689C103.294 15.668 103.049 15.5475 102.889 15.3421ZM113.838 31.4844H93.2589V24.9597H113.838V31.4844Z" fill="white"/>
</svg>
